<?xml version="1.0"?>
<svg xmlns="http://www.w3.org/2000/svg" xmlns:xlink="http://www.w3.org/1999/xlink" version="1.1" viewBox="0 0 224 224" width="48px" height="48px"><g transform=""><g fill="none" fill-rule="nonzero" stroke="none" stroke-width="1" stroke-linecap="butt" stroke-linejoin="miter" stroke-miterlimit="10" stroke-dasharray="" stroke-dashoffset="0" font-family="none" font-weight="none" font-size="none" text-anchor="none" style="mix-blend-mode: normal"><path d="M0,224v-224h224v224z" fill="none"/><g id="Layer_1"><path d="M112,205.33333c-51.464,0 -93.33333,-41.86933 -93.33333,-93.33333c0,-51.464 41.86933,-93.33333 93.33333,-93.33333c51.464,0 93.33333,41.86933 93.33333,93.33333c0,51.464 -41.86933,93.33333 -93.33333,93.33333z" fill="#38518a"/><rect x="13" y="21" transform="scale(4.66667,4.66667)" width="22" height="6" fill="#ffffff"/><rect x="13" y="-27" transform="rotate(90) scale(4.66667,4.66667)" width="22" height="6" fill="#ffffff"/></g><path d="" fill="none"/><path d="" fill="none"/><path d="M112,224c-61.85589,0 -112,-50.14411 -112,-112v0c0,-61.85589 50.14411,-112 112,-112v0c61.85589,0 112,50.14411 112,112v0c0,61.85589 -50.14411,112 -112,112z" fill="none"/><path d="M112,219.52c-59.38166,0 -107.52,-48.13834 -107.52,-107.52v0c0,-59.38166 48.13834,-107.52 107.52,-107.52h0c59.38166,0 107.52,48.13834 107.52,107.52v0c0,59.38166 -48.13834,107.52 -107.52,107.52z" fill="none"/><path d="M112,224c-61.85589,0 -112,-50.14411 -112,-112v0c0,-61.85589 50.14411,-112 112,-112v0c61.85589,0 112,50.14411 112,112v0c0,61.85589 -50.14411,112 -112,112z" fill="none"/><path d="M112,219.52c-59.38166,0 -107.52,-48.13834 -107.52,-107.52v0c0,-59.38166 48.13834,-107.52 107.52,-107.52h0c59.38166,0 107.52,48.13834 107.52,107.52v0c0,59.38166 -48.13834,107.52 -107.52,107.52z" fill="none"/><path d="" fill="none"/><path d="M0,224v-224h224v224z" fill="none"/><path d="M4.48,219.52v-215.04h215.04v215.04z" fill="none"/></g></g></svg>
