<?xml version="1.0" encoding="utf-8"?>
<!-- Generator: Adobe Illustrator 23.0.0, SVG Export Plug-In . SVG Version: 6.00 Build 0)  -->
<svg version="1.1" id="Layer_1" xmlns="http://www.w3.org/2000/svg" xmlns:xlink="http://www.w3.org/1999/xlink" x="0px" y="0px"
	 viewBox="0 0 48 48" style="enable-background:new 0 0 48 48;" xml:space="preserve">
<style type="text/css">
	.st0{fill:none;}
	.st1{fill:#FFDD00;}
	.st2{fill:#FFFFFF;}
</style>
<g transform="">
	<g>
		<path class="st0" d="M0,48V0h48v48H0z"/>
		<g>
			<path class="st1" d="M24,44C13,44,4,35,4,24S13,4,24,4s20,9,20,20S35,44,24,44z"/>
			<rect x="13" y="21" width="22" height="6"/>
			<rect x="21" y="13" width="6" height="22"/>
		</g>
		<path class="st2" d="M0,0"/>
		<path class="st2" d="M0,0"/>
		<path class="st0" d="M24,48C10.7,48,0,37.3,0,24l0,0C0,10.7,10.7,0,24,0l0,0c13.3,0,24,10.7,24,24l0,0C48,37.3,37.3,48,24,48z"/>
		<path class="st0" d="M24,47C11.3,47,1,36.7,1,24l0,0C1,11.3,11.3,1,24,1l0,0c12.7,0,23,10.3,23,23l0,0C47,36.7,36.7,47,24,47z"/>
		<path class="st0" d="M24,48C10.7,48,0,37.3,0,24l0,0C0,10.7,10.7,0,24,0l0,0c13.3,0,24,10.7,24,24l0,0C48,37.3,37.3,48,24,48z"/>
		<path class="st0" d="M24,47C11.3,47,1,36.7,1,24l0,0C1,11.3,11.3,1,24,1l0,0c12.7,0,23,10.3,23,23l0,0C47,36.7,36.7,47,24,47z"/>
		<path class="st0" d="M0,0"/>
		<path class="st0" d="M0,48V0h48v48H0z"/>
		<path class="st0" d="M1,47V1H47V47H1z"/>
	</g>
</g>
</svg>
